<svg xmlns="http://www.w3.org/2000/svg" viewBox="0 0 16 16" x="0px" y="0px" width="16px" height="16px" xmlns:xml="http://www.w3.org/XML/1998/namespace" xml:space="preserve" enable-background="new 0 0 16 16" xmlns:xlink="http://www.w3.org/1999/xlink">
                        <path d="M 11.001 0 H 5 C 3.896 0 3 0.896 3 2 c 0 0.273 0 11.727 0 12 c 0 1.104 0.896 2 2 2 h 6 c 1.104 0 2 -0.896 2 -2 c 0 -0.273 0 -11.727 0 -12 C 13.001 0.896 12.105 0 11.001 0 Z M 8 15 c -0.552 0 -1 -0.447 -1 -1 s 0.448 -1 1 -1 s 1 0.447 1 1 S 8.553 15 8 15 Z M 11.001 12 H 5 V 2 h 6 V 12 Z" />
                                            <image style="vertical-align: top;" width="16" height="16" href="/site/templates/vg_progressive/images/png-icons/phone-icon.png" alt="">
                    </image></svg>